<?xml version="1.0" encoding="UTF-8" standalone="no"?>
<!DOCTYPE svg PUBLIC "-//W3C//DTD SVG 1.1//EN"
 "http://www.w3.org/Graphics/SVG/1.1/DTD/svg11.dtd">
<!-- Generated by graphviz version 2.47.0 (20210316.0004)
 -->
<!-- Title: dependencies Pages: 1 -->
<svg width="1680pt" height="211pt"
 viewBox="0.00 0.00 1680.00 211.00" xmlns="http://www.w3.org/2000/svg" xmlns:xlink="http://www.w3.org/1999/xlink">
<g id="graph0" class="graph" transform="scale(1 1) rotate(0) translate(4 207)">
<title>dependencies</title>
<polygon fill="white" stroke="transparent" points="-4,4 -4,-207 1676,-207 1676,4 -4,4"/>
<text text-anchor="start" x="815.01" y="-42.4" font-family="Times-12" font-weight="bold" font-size="14.00">Legend</text>
<polygon fill="#ffffb3" stroke="transparent" points="602,-10 602,-30 622,-30 622,-10 602,-10"/>
<text text-anchor="start" x="625.63" y="-15.4" font-family="Times-12" font-size="14.00"> &#160;Declarations</text>
<polygon fill="#8dd3c7" stroke="transparent" points="715,-10 715,-30 735,-30 735,-10 715,-10"/>
<text text-anchor="start" x="738.73" y="-15.4" font-family="Times-12" font-size="14.00"> &#160;Module</text>
<polygon fill="#80b1d3" stroke="transparent" points="801,-10 801,-30 821,-30 821,-10 801,-10"/>
<text text-anchor="start" x="824.78" y="-15.4" font-family="Times-12" font-size="14.00"> &#160;Bootstrap</text>
<polygon fill="#fdb462" stroke="transparent" points="898,-10 898,-30 918,-30 918,-10 898,-10"/>
<text text-anchor="start" x="921.67" y="-15.4" font-family="Times-12" font-size="14.00"> &#160;Providers</text>
<polygon fill="#fb8072" stroke="transparent" points="994,-10 994,-30 1014,-30 1014,-10 994,-10"/>
<text text-anchor="start" x="1017.73" y="-15.4" font-family="Times-12" font-size="14.00"> &#160;Exports</text>
<g id="clust1" class="cluster">
<title>cluster_ApiModule</title>
<polygon fill="none" stroke="black" stroke-dasharray="1,5" points="8,-70 8,-195 1664,-195 1664,-70 8,-70"/>
</g>
<g id="clust6" class="cluster">
<title>cluster_ApiModule_providers</title>
<polygon fill="none" stroke="black" points="16,-78 16,-130 1656,-130 1656,-78 16,-78"/>
</g>
<!-- ApiConfiguration -->
<g id="node1" class="node">
<title>ApiConfiguration</title>
<ellipse fill="#fdb462" stroke="black" cx="1568" cy="-104" rx="79.9" ry="18"/>
<text text-anchor="middle" x="1568" y="-99.8" font-family="Times,serif" font-size="14.00">ApiConfiguration</text>
</g>
<!-- ApiModule -->
<g id="node11" class="node">
<title>ApiModule</title>
<polygon fill="#8dd3c7" stroke="black" points="814.05,-187 811.05,-191 790.05,-191 787.05,-187 733.95,-187 733.95,-151 814.05,-151 814.05,-187"/>
<text text-anchor="middle" x="774" y="-164.8" font-family="Times,serif" font-size="14.00">ApiModule</text>
</g>
<!-- ApiConfiguration&#45;&gt;ApiModule -->
<g id="edge1" class="edge">
<title>ApiConfiguration&#45;&gt;ApiModule</title>
<path fill="none" stroke="black" d="M1568,-122.01C1568,-144.49 1568,-180 1568,-180 1568,-180 824.19,-180 824.19,-180"/>
<polygon fill="black" stroke="black" points="824.19,-176.5 814.19,-180 824.19,-183.5 824.19,-176.5"/>
</g>
<!-- AuthenticationService -->
<g id="node2" class="node">
<title>AuthenticationService</title>
<ellipse fill="#fdb462" stroke="black" cx="1373" cy="-104" rx="97.27" ry="18"/>
<text text-anchor="middle" x="1373" y="-99.8" font-family="Times,serif" font-size="14.00">AuthenticationService</text>
</g>
<!-- AuthenticationService&#45;&gt;ApiModule -->
<g id="edge2" class="edge">
<title>AuthenticationService&#45;&gt;ApiModule</title>
<path fill="none" stroke="black" d="M1373,-122.13C1373,-142.57 1373,-173 1373,-173 1373,-173 824.23,-173 824.23,-173"/>
<polygon fill="black" stroke="black" points="824.23,-169.5 814.23,-173 824.23,-176.5 824.23,-169.5"/>
</g>
<!-- CategoryService -->
<g id="node3" class="node">
<title>CategoryService</title>
<ellipse fill="#fdb462" stroke="black" cx="1182" cy="-104" rx="75.28" ry="18"/>
<text text-anchor="middle" x="1182" y="-99.8" font-family="Times,serif" font-size="14.00">CategoryService</text>
</g>
<!-- CategoryService&#45;&gt;ApiModule -->
<g id="edge3" class="edge">
<title>CategoryService&#45;&gt;ApiModule</title>
<path fill="none" stroke="black" d="M1182,-122.27C1182,-140.56 1182,-166 1182,-166 1182,-166 824.24,-166 824.24,-166"/>
<polygon fill="black" stroke="black" points="824.24,-162.5 814.24,-166 824.24,-169.5 824.24,-162.5"/>
</g>
<!-- GymService -->
<g id="node4" class="node">
<title>GymService</title>
<ellipse fill="#fdb462" stroke="black" cx="1029" cy="-104" rx="59.11" ry="18"/>
<text text-anchor="middle" x="1029" y="-99.8" font-family="Times,serif" font-size="14.00">GymService</text>
</g>
<!-- GymService&#45;&gt;ApiModule -->
<g id="edge4" class="edge">
<title>GymService&#45;&gt;ApiModule</title>
<path fill="none" stroke="black" d="M1029,-122.01C1029,-138.05 1029,-159 1029,-159 1029,-159 824.12,-159 824.12,-159"/>
<polygon fill="black" stroke="black" points="824.12,-155.5 814.12,-159 824.12,-162.5 824.12,-155.5"/>
</g>
<!-- InteractionService -->
<g id="node5" class="node">
<title>InteractionService</title>
<ellipse fill="#fdb462" stroke="black" cx="870" cy="-104" rx="81.64" ry="18"/>
<text text-anchor="middle" x="870" y="-99.8" font-family="Times,serif" font-size="14.00">InteractionService</text>
</g>
<!-- InteractionService&#45;&gt;ApiModule -->
<g id="edge5" class="edge">
<title>InteractionService&#45;&gt;ApiModule</title>
<path fill="none" stroke="black" d="M801.23,-113.87C801.23,-113.87 801.23,-140.91 801.23,-140.91"/>
<polygon fill="black" stroke="black" points="797.73,-140.91 801.23,-150.91 804.73,-140.91 797.73,-140.91"/>
</g>
<!-- PersonalDataService -->
<g id="node6" class="node">
<title>PersonalDataService</title>
<ellipse fill="#fdb462" stroke="black" cx="679" cy="-104" rx="91.45" ry="18"/>
<text text-anchor="middle" x="679" y="-99.8" font-family="Times,serif" font-size="14.00">PersonalDataService</text>
</g>
<!-- PersonalDataService&#45;&gt;ApiModule -->
<g id="edge6" class="edge">
<title>PersonalDataService&#45;&gt;ApiModule</title>
<path fill="none" stroke="black" d="M752.1,-115.03C752.1,-115.03 752.1,-140.78 752.1,-140.78"/>
<polygon fill="black" stroke="black" points="748.6,-140.78 752.1,-150.78 755.6,-140.78 748.6,-140.78"/>
</g>
<!-- PillarService -->
<g id="node7" class="node">
<title>PillarService</title>
<ellipse fill="#fdb462" stroke="black" cx="509" cy="-104" rx="60.83" ry="18"/>
<text text-anchor="middle" x="509" y="-99.8" font-family="Times,serif" font-size="14.00">PillarService</text>
</g>
<!-- PillarService&#45;&gt;ApiModule -->
<g id="edge7" class="edge">
<title>PillarService&#45;&gt;ApiModule</title>
<path fill="none" stroke="black" d="M509,-122.01C509,-138.05 509,-159 509,-159 509,-159 723.75,-159 723.75,-159"/>
<polygon fill="black" stroke="black" points="723.75,-162.5 733.75,-159 723.75,-155.5 723.75,-162.5"/>
</g>
<!-- ProductService -->
<g id="node8" class="node">
<title>ProductService</title>
<ellipse fill="#fdb462" stroke="black" cx="360" cy="-104" rx="70.06" ry="18"/>
<text text-anchor="middle" x="360" y="-99.8" font-family="Times,serif" font-size="14.00">ProductService</text>
</g>
<!-- ProductService&#45;&gt;ApiModule -->
<g id="edge8" class="edge">
<title>ProductService&#45;&gt;ApiModule</title>
<path fill="none" stroke="black" d="M360,-122.27C360,-140.56 360,-166 360,-166 360,-166 723.93,-166 723.93,-166"/>
<polygon fill="black" stroke="black" points="723.93,-169.5 733.93,-166 723.93,-162.5 723.93,-169.5"/>
</g>
<!-- SaleService -->
<g id="node9" class="node">
<title>SaleService</title>
<ellipse fill="#fdb462" stroke="black" cx="215" cy="-104" rx="56.73" ry="18"/>
<text text-anchor="middle" x="215" y="-99.8" font-family="Times,serif" font-size="14.00">SaleService</text>
</g>
<!-- SaleService&#45;&gt;ApiModule -->
<g id="edge9" class="edge">
<title>SaleService&#45;&gt;ApiModule</title>
<path fill="none" stroke="black" d="M215,-122.13C215,-142.57 215,-173 215,-173 215,-173 723.8,-173 723.8,-173"/>
<polygon fill="black" stroke="black" points="723.8,-176.5 733.8,-173 723.8,-169.5 723.8,-176.5"/>
</g>
<!-- UserService -->
<g id="node10" class="node">
<title>UserService</title>
<ellipse fill="#fdb462" stroke="black" cx="82" cy="-104" rx="58.44" ry="18"/>
<text text-anchor="middle" x="82" y="-99.8" font-family="Times,serif" font-size="14.00">UserService</text>
</g>
<!-- UserService&#45;&gt;ApiModule -->
<g id="edge10" class="edge">
<title>UserService&#45;&gt;ApiModule</title>
<path fill="none" stroke="black" d="M82,-122.01C82,-144.49 82,-180 82,-180 82,-180 723.8,-180 723.8,-180"/>
<polygon fill="black" stroke="black" points="723.8,-183.5 733.8,-180 723.8,-176.5 723.8,-183.5"/>
</g>
</g>
</svg>
